<svg id="Layer_1" data-name="Layer 1" xmlns="http://www.w3.org/2000/svg" viewBox="0 0 22 22"><defs><style>.cls-1{fill:#fff;}</style></defs><path class="cls-1" d="M21.49,7.87l-9-7.36,0,0A2.31,2.31,0,0,0,11,0h0A2.31,2.31,0,0,0,9.57.49l0,0-9,7.36A1.38,1.38,0,0,0,0,8.94V20.63A1.37,1.37,0,0,0,1.37,22H8.94V14.44h4.12V22h7.56a1.38,1.38,0,0,0,1-.4,1.41,1.41,0,0,0,.4-1V8.94A1.38,1.38,0,0,0,21.49,7.87Zm-.87,12.76H14.44V14.44a1.38,1.38,0,0,0-1.38-1.38H8.94a1.38,1.38,0,0,0-1.38,1.38v6.19H1.37V8.94l9-7.36a1,1,0,0,1,1.2,0l9,7.36Z"/></svg>