<svg id="Layer_1" data-name="Layer 1" xmlns="http://www.w3.org/2000/svg" viewBox="0 0 798.65 813.95"><path d="M0,407.12V198.65C.11,102.91,71,19.45,165.45,3.27,189.66-.88,214,.48,238.26.43q130.49-.3,261-.08C534.08.35,569-.6,603.74.62,674.24,3.07,729,34.73,767.61,93.56c21.32,32.46,31,68.71,31,107.48q.07,206.22,0,412.46c-.09,98.11-69.24,180.41-165.89,197.36a210.41,210.41,0,0,1-35.8,2.77q-129.49.33-259,.08c-47.49,0-95,.68-142.48-.25C133.59,812.24,83,786.61,44.08,738.88c-30-36.74-44-79.44-44-126.78v-205ZM736.56,407l-.13-176.5a160.14,160.14,0,0,0-2.92-30.27c-16.06-80.52-84.6-136.7-166.57-136.75q-167.75-.1-335.49.1a185.05,185.05,0,0,0-31.77,2.93C121.37,80.38,62.31,150.18,62.1,229.69q-.47,177.49,0,355a158.6,158.6,0,0,0,10.68,56.64C98,707.77,160.15,750.64,231.66,750.73q142.75.18,285.49,0c22,0,44.11,1,66-.79,86.59-7.28,153.31-80.57,153.43-167.49q.07-87.74,0-175.45ZM399.44,202.88c113.4.45,204.57,92.17,204.08,205.34-.48,112.86-92.61,203.48-206.35,203C285,610.71,194.64,518.31,195.08,404.45c.42-110.45,93.23-202,204.36-201.57ZM395.94,552c26-.08,47.68-5.34,68-16,81.06-42.68,102.4-152.67,43.24-222.67-48.38-57.23-128.56-67.71-189-24.82-48.18,34.19-70.13,94.71-56,154.33C277.19,506,334.52,551.77,395.94,552ZM549.88,194.72a61.29,61.29,0,0,1,122.57-.1c.11,33.61-27.69,61.26-61.58,61.24A61.12,61.12,0,0,1,549.88,194.72Z" transform="translate(0 0)"/></svg>