<svg id="Layer_1" data-name="Layer 1" xmlns="http://www.w3.org/2000/svg" viewBox="0 0 1933 1933"><defs><style>.cls-1{fill:#fff;}</style></defs><path class="cls-1" d="M966.5,0C432.7,0,0,432.69,0,966.5S432.74,1933,966.5,1933,1933,1500.26,1933,966.5,1500.31,0,966.5,0Zm0,1836.36c-76.5,0-175.17-142.56-235.44-386.6h470.88c-60.27,244-158.94,386.6-235.44,386.6ZM710.33,1353.09c-18.45-100-30.31-213.43-32.82-338.28h578c-2.51,124.85-14.37,238.24-32.82,338.28ZM99.07,1014.82H580.84c2.38,119.75,13.16,233.88,31.41,338.27H188.42a862.45,862.45,0,0,1-89.35-338.27ZM966.48,96.62c76.5,0,175.17,142.57,235.45,386.6H731c60.27-244,158.94-386.6,235.44-386.6Zm256.17,483.27c18.45,100,30.31,213.44,32.82,338.29l-578,0c2.5-124.85,14.37-238.24,32.81-338.28ZM580.86,918.16H99.08a862.32,862.32,0,0,1,89.35-338.27H612.3c-18.27,104.4-29,218.52-31.42,338.27Zm771.28,96.66h481.78a862.78,862.78,0,0,1-89.33,338.29H1320.72c18.25-104.41,29-218.54,31.4-338.29Zm0-96.66c-2.38-119.75-13.16-233.87-31.41-338.27H1744.6a862.43,862.43,0,0,1,89.33,338.29Zm337.15-434.93H1301c-35.66-153.91-87.52-281.46-150.12-366.52,223.35,48.43,415.05,182.6,538.44,366.52ZM782.15,116.71C719.55,201.77,667.69,329.32,632,483.23H243.71c123.4-183.92,315.08-318.09,538.45-366.52Zm-538.44,1333H632c35.66,153.91,87.52,281.46,150.12,366.52-223.35-48.42-415-182.58-538.44-366.52Zm907.14,366.52c62.6-85.07,114.46-212.61,150.12-366.52h388.31c-123.39,183.94-315.08,318.1-538.44,366.52Z"/></svg>