<svg id="Layer_1" data-name="Layer 1" xmlns="http://www.w3.org/2000/svg" viewBox="0 0 128.02 127.93"><path d="M63.89,127.92c-18.09,0-36.18-.06-54.27,0A9.41,9.41,0,0,1,.1,120.11a9.73,9.73,0,0,1-.1-1.43V9.33A9.08,9.08,0,0,1,8.81,0H118.47a9.3,9.3,0,0,1,9.14,6.51,10.75,10.75,0,0,1,.4,2.7V118.69a9.07,9.07,0,0,1-8.9,9.22H63.89ZM68.27,56.2v-7c0-1.08-.28-1.44-1.41-1.43H51.17c-1.26,0-1.52.41-1.52,1.58v58.32c0,1.2.33,1.6,1.54,1.58q8.14-.07,16.3,0c1.22,0,1.53-.38,1.53-1.57Q69,93,69,78.37a35.15,35.15,0,0,1,.5-6.06c.74-4.13,2.63-7.48,7.06-8.59a16.47,16.47,0,0,1,4.14-.38c4.62,0,7.43,2.19,8.45,6.72A35.33,35.33,0,0,1,90,77.52v30.17c0,1.18.32,1.62,1.55,1.6q8.15-.08,16.29,0c1.17,0,1.47-.38,1.47-1.51V75.32a57.16,57.16,0,0,0-1.24-13.17c-1.21-5.12-3.45-9.61-8-12.56a21.37,21.37,0,0,0-9.34-3.06c-4.07-.44-8.1-.49-12,1A20.67,20.67,0,0,0,68.27,56.2ZM18.76,78.6v29.21c0,1.18.38,1.49,1.51,1.48h16.4c1.06,0,1.47-.28,1.46-1.42V49.2c0-1.16-.42-1.39-1.46-1.38H20.5c-1.71,0-1.71,0-1.71,1.67Zm9.59-39a11.11,11.11,0,1,0-11-11.22v.12a11.06,11.06,0,0,0,11,11.14h0Z" transform="translate(0 0)"/></svg>