<svg id="Layer_1" data-name="Layer 1" xmlns="http://www.w3.org/2000/svg" viewBox="0 0 467.76 503.99"><path d="M467.76,0C439.09,4.77,411.3.32,383.4,2.4,244.47,12.8,256,109.53,258.42,175.51,161.05,190.3,42.36,160.5,0,170.25,14.08,191.77,46.59,223.72,70.86,231,57.09,240.77,38.67,242.68,22,248.4c23.09,17.67,45.45,34.49,73.4,45.53C82,299.15,69.19,305,55.14,308.9c32.4,33.44,84.38,46.55,129.57,49.83C149.27,459.51,81.51,457.47,40.38,467.6c71.7,30.6,183.05,48.41,237.82,27,84.39-32.94,130.31-84.09,160.25-170.7,18.67-54,9.12-98.2-4.81-154.73-8.87-36-12.94-50.35-10-87.16,3.77-46.85,34.12-74.57,44.09-82Z"/></svg>